<svg xmlns="http://www.w3.org/2000/svg" viewBox="0 0 30 30" width="32" height="32">
  <rect x="0" y="0" width="6" height="6" rx="0.5" fill="#1a1a1a"/>
  <rect x="8" y="0" width="6" height="6" rx="0.5" fill="#d4d4d4"/>
  <rect x="16" y="0" width="6" height="6" rx="0.5" fill="#d4d4d4"/>
  <rect x="24" y="0" width="6" height="6" rx="0.5" fill="#1a1a1a"/>
  <rect x="0" y="8" width="6" height="6" rx="0.5" fill="#d4d4d4"/>
  <rect x="8" y="8" width="6" height="6" rx="0.5" fill="#1a1a1a"/>
  <rect x="16" y="8" width="6" height="6" rx="0.5" fill="#1a1a1a"/>
  <rect x="24" y="8" width="6" height="6" rx="0.5" fill="#d4d4d4"/>
  <rect x="0" y="16" width="6" height="6" rx="0.5" fill="#d4d4d4"/>
  <rect x="8" y="16" width="6" height="6" rx="0.5" fill="#1a1a1a"/>
  <rect x="16" y="16" width="6" height="6" rx="0.5" fill="#1a1a1a"/>
  <rect x="24" y="16" width="6" height="6" rx="0.5" fill="#d4d4d4"/>
  <rect x="0" y="24" width="6" height="6" rx="0.5" fill="#1a1a1a"/>
  <rect x="8" y="24" width="6" height="6" rx="0.5" fill="#d4d4d4"/>
  <rect x="16" y="24" width="6" height="6" rx="0.5" fill="#d4d4d4"/>
  <rect x="24" y="24" width="6" height="6" rx="0.5" fill="#1a1a1a"/>
</svg>
